<svg width="640" height="360" viewBox="0 0 640 360" fill="none" xmlns="http://www.w3.org/2000/svg">
  <rect width="640" height="360" rx="24" fill="#020617"/>
  <rect x="24" y="24" width="592" height="312" rx="20" fill="#0F172A" stroke="#334155"/>
  <rect x="48" y="56" width="544" height="36" rx="12" fill="#111827" stroke="#334155"/>
  <rect x="66" y="130" width="500" height="28" rx="10" fill="#111827" stroke="#334155"/>
  <rect x="66" y="170" width="500" height="28" rx="10" fill="#111827" stroke="#334155"/>
  <rect x="66" y="210" width="500" height="28" rx="10" fill="#111827" stroke="#334155"/>
  <rect x="66" y="250" width="500" height="28" rx="10" fill="#111827" stroke="#334155"/>
  <circle cx="540" cy="74" r="8" fill="#22D3EE"/>
  <rect x="472" y="100" width="120" height="130" rx="12" fill="#111827" stroke="#22D3EE"/>
  <rect x="486" y="114" width="92" height="12" rx="6" fill="#334155"/>
  <rect x="486" y="134" width="100" height="12" rx="6" fill="#334155"/>
  <rect x="486" y="154" width="88" height="12" rx="6" fill="#334155"/>
  <rect x="486" y="174" width="96" height="12" rx="6" fill="#334155"/>
  <rect x="486" y="194" width="72" height="12" rx="6" fill="#10B981" fill-opacity="0.4"/>
  <text x="54" y="46" fill="#E2E8F0" font-family="Arial, sans-serif" font-size="14">Step 2: Click the three-dot menu in Bookmarks Manager</text>
</svg>
